<svg width="38" height="38" fill="none" xmlns="http://www.w3.org/2000/svg">
    <symbol id="instagram" viewBox="0 0 38 38">
        <path d="M19.0078 13.8739C16.1685 13.8739 13.8783 16.1641 13.8783 19.0033C13.8783 21.8426 16.1685 24.1328 19.0078 24.1328C21.8471 24.1328 24.1373 21.8426 24.1373 19.0033C24.1373 16.1641 21.8471 13.8739 19.0078 13.8739ZM19.0078 22.3382C17.173 22.3382 15.673 20.8426 15.673 19.0033C15.673 17.1641 17.1685 15.6685 19.0078 15.6685C20.8471 15.6685 22.3426 17.1641 22.3426 19.0033C22.3426 20.8426 20.8426 22.3382 19.0078 22.3382V22.3382ZM25.5435 13.6641C25.5435 14.3292 25.0078 14.8605 24.3471 14.8605C23.6819 14.8605 23.1506 14.3248 23.1506 13.6641C23.1506 13.0033 23.6864 12.4676 24.3471 12.4676C25.0078 12.4676 25.5435 13.0033 25.5435 13.6641ZM28.9408 14.8783C28.8649 13.2757 28.4989 11.856 27.3247 10.6864C26.1551 9.51674 24.7355 9.15067 23.1328 9.07031C21.481 8.97656 16.5301 8.97656 14.8783 9.07031C13.2801 9.14621 11.8605 9.51228 10.6864 10.6819C9.51228 11.8516 9.15067 13.2712 9.07031 14.8739C8.97656 16.5257 8.97656 21.4766 9.07031 23.1283C9.14621 24.731 9.51228 26.1507 10.6864 27.3203C11.8605 28.49 13.2757 28.856 14.8783 28.9364C16.5301 29.0301 21.481 29.0301 23.1328 28.9364C24.7355 28.8605 26.1551 28.4944 27.3247 27.3203C28.4944 26.1507 28.8605 24.731 28.9408 23.1283C29.0346 21.4766 29.0346 16.5301 28.9408 14.8783V14.8783ZM26.8069 24.9007C26.4587 25.7757 25.7846 26.4498 24.9051 26.8025C23.5881 27.3248 20.4632 27.2042 19.0078 27.2042C17.5524 27.2042 14.423 27.3203 13.1105 26.8025C12.2355 26.4542 11.5614 25.7801 11.2087 24.9007C10.6864 23.5837 10.8069 20.4587 10.8069 19.0033C10.8069 17.548 10.6908 14.4185 11.2087 13.106C11.5569 12.231 12.231 11.5569 13.1105 11.2042C14.4274 10.6819 17.5524 10.8025 19.0078 10.8025C20.4632 10.8025 23.5926 10.6864 24.9051 11.2042C25.7801 11.5525 26.4542 12.2266 26.8069 13.106C27.3292 14.423 27.2087 17.548 27.2087 19.0033C27.2087 20.4587 27.3292 23.5882 26.8069 24.9007Z" fill="#0D0D0D"/>
    </symbol>

    <symbol id="facebook" viewBox="0 0 38 38">
        <path d="M23.3447 20.5025L23.8632 17.1235H20.621V14.9307C20.621 14.0063 21.0739 13.1052 22.526 13.1052H24V10.2283C24 10.2283 22.6624 10 21.3835 10C18.7134 10 16.9681 11.6184 16.9681 14.5482V17.1235H14V20.5025H16.9681V28.6711H20.621V20.5025H23.3447Z" fill="#0D0D0D"/>
    </symbol>

    <symbol id="github" viewBox="0 0 38 38">
        <path d="M15.6895 24.7016C15.6895 24.7823 15.5968 24.8468 15.4798 24.8468C15.3468 24.8589 15.254 24.7944 15.254 24.7016C15.254 24.621 15.3468 24.5565 15.4637 24.5565C15.5847 24.5444 15.6895 24.6089 15.6895 24.7016ZM14.4355 24.5202C14.4073 24.6008 14.4879 24.6935 14.6089 24.7177C14.7137 24.7581 14.8347 24.7177 14.8589 24.6371C14.8831 24.5565 14.8065 24.4637 14.6855 24.4274C14.5806 24.3992 14.4637 24.4395 14.4355 24.5202ZM16.2177 24.4516C16.1008 24.4798 16.0202 24.5565 16.0323 24.6492C16.0444 24.7298 16.1492 24.7823 16.2702 24.754C16.3871 24.7258 16.4677 24.6492 16.4556 24.5685C16.4435 24.4919 16.3347 24.4395 16.2177 24.4516ZM18.871 9C13.2782 9 9 13.246 9 18.8387C9 23.3105 11.8145 27.1371 15.8347 28.4839C16.3508 28.5766 16.5323 28.2581 16.5323 27.996C16.5323 27.746 16.5202 26.3669 16.5202 25.5202C16.5202 25.5202 13.6976 26.125 13.1048 24.3185C13.1048 24.3185 12.6452 23.1452 11.9839 22.8427C11.9839 22.8427 11.0605 22.2097 12.0484 22.2218C12.0484 22.2218 13.0524 22.3024 13.6048 23.2621C14.4879 24.8185 15.9677 24.371 16.5444 24.1048C16.6371 23.4597 16.8992 23.0121 17.1895 22.746C14.9355 22.496 12.6613 22.1694 12.6613 18.2903C12.6613 17.1815 12.9677 16.625 13.6129 15.9153C13.5081 15.6532 13.1653 14.5726 13.7177 13.1774C14.5605 12.9153 16.5 14.2661 16.5 14.2661C17.3065 14.0403 18.1734 13.9234 19.0323 13.9234C19.8911 13.9234 20.7581 14.0403 21.5645 14.2661C21.5645 14.2661 23.504 12.9113 24.3468 13.1774C24.8992 14.5766 24.5565 15.6532 24.4516 15.9153C25.0968 16.629 25.4919 17.1855 25.4919 18.2903C25.4919 22.1815 23.1169 22.4919 20.8629 22.746C21.2339 23.0645 21.5484 23.6694 21.5484 24.6169C21.5484 25.9758 21.5363 27.6573 21.5363 27.9879C21.5363 28.25 21.7218 28.5685 22.2339 28.4758C26.2661 27.1371 29 23.3105 29 18.8387C29 13.246 24.4637 9 18.871 9ZM12.9194 22.9073C12.8669 22.9476 12.879 23.0403 12.9476 23.1169C13.0121 23.1815 13.1048 23.2097 13.1573 23.1573C13.2097 23.1169 13.1976 23.0242 13.129 22.9476C13.0645 22.8831 12.9718 22.8548 12.9194 22.9073ZM12.4839 22.5806C12.4556 22.6331 12.496 22.6976 12.5766 22.7379C12.6411 22.7782 12.7218 22.7661 12.75 22.7097C12.7782 22.6573 12.7379 22.5927 12.6573 22.5524C12.5766 22.5282 12.5121 22.5403 12.4839 22.5806ZM13.7903 24.0161C13.7258 24.0685 13.75 24.1895 13.8427 24.2661C13.9355 24.3589 14.0524 24.371 14.1048 24.3065C14.1573 24.254 14.1331 24.1331 14.0524 24.0565C13.9637 23.9637 13.8427 23.9516 13.7903 24.0161ZM13.3306 23.4234C13.2661 23.4637 13.2661 23.5685 13.3306 23.6613C13.3952 23.754 13.504 23.7944 13.5565 23.754C13.621 23.7016 13.621 23.5968 13.5565 23.504C13.5 23.4113 13.3952 23.371 13.3306 23.4234Z" fill="#0D0D0D"/>
    </symbol>

    <symbol id="dribble" viewBox="0 0 38 38">
        <path d="M18.6875 9C13.3458 9 9 13.3458 9 18.6875C9 24.0292 13.3458 28.375 18.6875 28.375C24.0292 28.375 28.375 24.0292 28.375 18.6875C28.375 13.3458 24.0292 9 18.6875 9ZM25.0926 13.4674C26.245 14.8755 26.9429 16.6689 26.9611 18.6219C26.6883 18.5642 23.9526 18.0093 21.1993 18.3556C20.9746 17.8071 20.7626 17.3246 20.4721 16.73C23.5315 15.4809 24.9181 13.7034 25.0926 13.4674ZM24.1727 12.5105C24.0239 12.7225 22.7783 14.3967 19.8359 15.4996C18.48 13.0083 16.9771 10.9618 16.7484 10.6555C19.3725 10.023 22.1377 10.7051 24.1727 12.5105ZM15.1696 11.2117C15.3877 11.5109 16.8664 13.56 18.2374 15.9972C14.3668 17.0251 10.9577 17.0103 10.5877 17.0054C11.1242 14.4377 12.8546 12.3036 15.1696 11.2117ZM10.4129 18.7001C10.4129 18.6155 10.4146 18.5313 10.4171 18.4473C10.7791 18.4547 14.789 18.5064 18.9213 17.2697C19.1581 17.7333 19.3844 18.2039 19.5921 18.6739C16.6 19.5167 13.8814 21.9367 12.5401 24.2328C11.2185 22.7658 10.4129 20.8254 10.4129 18.7001ZM13.6085 25.228C14.4728 23.4611 16.8186 21.1802 20.1545 20.0422C21.3162 23.0611 21.7967 25.5911 21.9197 26.3171C19.2591 27.4504 16.0598 27.1395 13.6085 25.228ZM23.3108 25.5596C23.226 25.0562 22.7856 22.6339 21.7033 19.6598C24.2963 19.2448 26.5744 19.9242 26.8575 20.0136C26.4887 22.3159 25.1671 24.3043 23.3108 25.5596Z" fill="#0D0D0D"/>
    </symbol>

    <symbol id="twitter" viewBox="0 0 38 38">
        <path d="M26.9441 15.0482C26.9568 15.2259 26.9568 15.4036 26.9568 15.5812C26.9568 21 22.8325 27.2436 15.2944 27.2436C12.9721 27.2436 10.8147 26.571 9 25.4036C9.32996 25.4416 9.64719 25.4543 9.98984 25.4543C11.9061 25.4543 13.67 24.8071 15.0787 23.703C13.2766 23.665 11.7665 22.4848 11.2462 20.8604C11.5 20.8984 11.7538 20.9238 12.0203 20.9238C12.3883 20.9238 12.7564 20.873 13.099 20.7843C11.2208 20.4035 9.81215 18.7538 9.81215 16.7614V16.7107C10.3578 17.0152 10.9924 17.2056 11.6649 17.2309C10.5609 16.4949 9.83754 15.2386 9.83754 13.8172C9.83754 13.0558 10.0405 12.3579 10.3959 11.7487C12.4137 14.236 15.4467 15.8604 18.8477 16.038C18.7842 15.7335 18.7461 15.4163 18.7461 15.099C18.7461 12.8401 20.5736 11 22.8451 11C24.0253 11 25.0913 11.4949 25.84 12.2944C26.7664 12.1168 27.6547 11.7741 28.4416 11.3046C28.137 12.2564 27.4898 13.0559 26.6395 13.5634C27.4644 13.4746 28.2639 13.2462 28.9999 12.9289C28.4416 13.7411 27.7436 14.4644 26.9441 15.0482Z" fill="#0D0D0D"/>
    </symbol>

    <symbol id="footer-logo" viewBox="0 0 200 36">
        <path d="M48.132 31C47.712 31 47.362 30.86 47.082 30.58C46.8253 30.3 46.697 29.9617 46.697 29.565V7.9C46.697 7.50333 46.8253 7.17667 47.082 6.92C47.362 6.64 47.7003 6.5 48.097 6.5H60.382C60.7787 6.5 61.117 6.62833 61.397 6.885C61.677 7.14167 61.817 7.46833 61.817 7.865C61.817 8.23833 61.677 8.55333 61.397 8.81C61.117 9.06667 60.7787 9.195 60.382 9.195H49.357L49.567 8.915V17.49L49.392 17.105H58.807C59.2037 17.105 59.542 17.245 59.822 17.525C60.102 17.7817 60.242 18.1083 60.242 18.505C60.242 18.855 60.102 19.17 59.822 19.45C59.542 19.7067 59.2037 19.835 58.807 19.835H49.322L49.567 19.52V29.565C49.567 29.9617 49.427 30.3 49.147 30.58C48.867 30.86 48.5287 31 48.132 31ZM67.0894 31C66.6928 31 66.3544 30.86 66.0744 30.58C65.8178 30.3 65.6894 29.9617 65.6894 29.565V14.305C65.6894 13.9083 65.8178 13.5817 66.0744 13.325C66.3544 13.045 66.6928 12.905 67.0894 12.905C67.5094 12.905 67.8478 13.045 68.1044 13.325C68.3611 13.5817 68.4894 13.9083 68.4894 14.305V18.925L68.0694 18.19C68.2094 17.4667 68.4544 16.7667 68.8044 16.09C69.1778 15.39 69.6444 14.7717 70.2044 14.235C70.7644 13.675 71.4061 13.2433 72.1294 12.94C72.8528 12.6133 73.6461 12.45 74.5094 12.45C75.0228 12.45 75.4894 12.5783 75.9094 12.835C76.3528 13.0683 76.5744 13.4067 76.5744 13.85C76.5744 14.34 76.4461 14.7017 76.1894 14.935C75.9328 15.1683 75.6411 15.285 75.3144 15.285C75.0111 15.285 74.7194 15.2267 74.4394 15.11C74.1594 14.97 73.8094 14.9 73.3894 14.9C72.8061 14.9 72.2228 15.0633 71.6394 15.39C71.0794 15.6933 70.5544 16.1367 70.0644 16.72C69.5978 17.3033 69.2128 17.9683 68.9094 18.715C68.6294 19.4383 68.4894 20.22 68.4894 21.06V29.565C68.4894 29.9617 68.3494 30.3 68.0694 30.58C67.8128 30.86 67.4861 31 67.0894 31ZM87.3161 31.35C85.4495 31.35 83.8161 30.9533 82.4161 30.16C81.0161 29.3667 79.9195 28.2817 79.1261 26.905C78.3561 25.505 77.9711 23.895 77.9711 22.075C77.9711 20.045 78.3678 18.3183 79.1611 16.895C79.9778 15.4483 81.0278 14.3517 82.3111 13.605C83.6178 12.835 84.9945 12.45 86.4411 12.45C87.5145 12.45 88.5528 12.6483 89.5561 13.045C90.5595 13.4417 91.4461 14.025 92.2161 14.795C92.9861 15.5417 93.6045 16.4517 94.0711 17.525C94.5378 18.575 94.7828 19.7533 94.8061 21.06C94.8061 21.4333 94.6661 21.7483 94.3861 22.005C94.1061 22.2617 93.7795 22.39 93.4061 22.39H79.5811L78.9511 19.975H92.4261L91.8661 20.465V19.695C91.7728 18.7383 91.4461 17.9217 90.8861 17.245C90.3495 16.545 89.6845 16.0083 88.8911 15.635C88.1211 15.2617 87.3045 15.075 86.4411 15.075C85.7411 15.075 85.0411 15.2033 84.3411 15.46C83.6645 15.6933 83.0461 16.09 82.4861 16.65C81.9495 17.1867 81.5061 17.8867 81.1561 18.75C80.8295 19.6133 80.6661 20.6517 80.6661 21.865C80.6661 23.2183 80.9345 24.4083 81.4711 25.435C82.0311 26.4617 82.8011 27.2783 83.7811 27.885C84.7611 28.4683 85.9045 28.76 87.2111 28.76C88.0278 28.76 88.7395 28.655 89.3461 28.445C89.9528 28.235 90.4778 27.9783 90.9211 27.675C91.3645 27.3483 91.7378 27.0217 92.0411 26.695C92.3445 26.485 92.6361 26.38 92.9161 26.38C93.2661 26.38 93.5461 26.4967 93.7561 26.73C93.9895 26.9633 94.1061 27.2433 94.1061 27.57C94.1061 27.9667 93.9195 28.3167 93.5461 28.62C92.8928 29.3433 92.0061 29.985 90.8861 30.545C89.7661 31.0817 88.5761 31.35 87.3161 31.35ZM107.38 31.35C105.513 31.35 103.88 30.9533 102.48 30.16C101.08 29.3667 99.983 28.2817 99.1896 26.905C98.4196 25.505 98.0346 23.895 98.0346 22.075C98.0346 20.045 98.4313 18.3183 99.2246 16.895C100.041 15.4483 101.091 14.3517 102.375 13.605C103.681 12.835 105.058 12.45 106.505 12.45C107.578 12.45 108.616 12.6483 109.62 13.045C110.623 13.4417 111.51 14.025 112.28 14.795C113.05 15.5417 113.668 16.4517 114.135 17.525C114.601 18.575 114.846 19.7533 114.87 21.06C114.87 21.4333 114.73 21.7483 114.45 22.005C114.17 22.2617 113.843 22.39 113.47 22.39H99.6446L99.0146 19.975H112.49L111.93 20.465V19.695C111.836 18.7383 111.51 17.9217 110.95 17.245C110.413 16.545 109.748 16.0083 108.955 15.635C108.185 15.2617 107.368 15.075 106.505 15.075C105.805 15.075 105.105 15.2033 104.405 15.46C103.728 15.6933 103.11 16.09 102.55 16.65C102.013 17.1867 101.57 17.8867 101.22 18.75C100.893 19.6133 100.73 20.6517 100.73 21.865C100.73 23.2183 100.998 24.4083 101.535 25.435C102.095 26.4617 102.865 27.2783 103.845 27.885C104.825 28.4683 105.968 28.76 107.275 28.76C108.091 28.76 108.803 28.655 109.41 28.445C110.016 28.235 110.541 27.9783 110.985 27.675C111.428 27.3483 111.801 27.0217 112.105 26.695C112.408 26.485 112.7 26.38 112.98 26.38C113.33 26.38 113.61 26.4967 113.82 26.73C114.053 26.9633 114.17 27.2433 114.17 27.57C114.17 27.9667 113.983 28.3167 113.61 28.62C112.956 29.3433 112.07 29.985 110.95 30.545C109.83 31.0817 108.64 31.35 107.38 31.35ZM127.828 12.625C129.368 12.625 130.581 12.9633 131.468 13.64C132.378 14.2933 133.02 15.18 133.393 16.3C133.79 17.3967 133.988 18.6217 133.988 19.975V29.565C133.988 29.9617 133.848 30.3 133.568 30.58C133.311 30.86 132.985 31 132.588 31C132.191 31 131.853 30.86 131.573 30.58C131.316 30.3 131.188 29.9617 131.188 29.565V19.975C131.188 19.0883 131.06 18.295 130.803 17.595C130.546 16.8717 130.115 16.3 129.508 15.88C128.925 15.4367 128.12 15.215 127.093 15.215C126.136 15.215 125.261 15.4367 124.468 15.88C123.675 16.3 123.045 16.8717 122.578 17.595C122.111 18.295 121.878 19.0883 121.878 19.975V29.565C121.878 29.9617 121.738 30.3 121.458 30.58C121.201 30.86 120.875 31 120.478 31C120.081 31 119.743 30.86 119.463 30.58C119.206 30.3 119.078 29.9617 119.078 29.565V6.5C119.078 6.10333 119.206 5.77667 119.463 5.52C119.743 5.24 120.081 5.1 120.478 5.1C120.898 5.1 121.236 5.24 121.493 5.52C121.75 5.77667 121.878 6.10333 121.878 6.5V16.965L121.178 17.735C121.295 17.1283 121.551 16.5217 121.948 15.915C122.345 15.285 122.846 14.725 123.453 14.235C124.06 13.745 124.736 13.36 125.483 13.08C126.23 12.7767 127.011 12.625 127.828 12.625ZM154.086 12.73C154.482 12.73 154.809 12.87 155.066 13.15C155.346 13.4067 155.486 13.7333 155.486 14.13V29.565C155.486 29.9617 155.346 30.3 155.066 30.58C154.809 30.86 154.482 31 154.086 31C153.666 31 153.327 30.86 153.071 30.58C152.814 30.3 152.686 29.9617 152.686 29.565V26.24L153.351 26.17C153.351 26.6833 153.176 27.2433 152.826 27.85C152.476 28.4567 151.997 29.0283 151.391 29.565C150.784 30.0783 150.061 30.51 149.221 30.86C148.404 31.1867 147.517 31.35 146.561 31.35C144.974 31.35 143.551 30.9417 142.291 30.125C141.031 29.285 140.027 28.1533 139.281 26.73C138.557 25.3067 138.196 23.685 138.196 21.865C138.196 20.0217 138.557 18.4 139.281 17C140.027 15.5767 141.031 14.4683 142.291 13.675C143.551 12.8583 144.951 12.45 146.491 12.45C147.494 12.45 148.427 12.6133 149.291 12.94C150.154 13.2667 150.901 13.71 151.531 14.27C152.184 14.83 152.686 15.4483 153.036 16.125C153.409 16.8017 153.596 17.4783 153.596 18.155L152.686 17.945V14.13C152.686 13.7333 152.814 13.4067 153.071 13.15C153.327 12.87 153.666 12.73 154.086 12.73ZM146.876 28.76C148.042 28.76 149.069 28.4567 149.956 27.85C150.866 27.2433 151.566 26.4267 152.056 25.4C152.569 24.35 152.826 23.1717 152.826 21.865C152.826 20.5817 152.569 19.4267 152.056 18.4C151.566 17.35 150.866 16.5333 149.956 15.95C149.069 15.3433 148.042 15.04 146.876 15.04C145.732 15.04 144.706 15.3317 143.796 15.915C142.909 16.4983 142.209 17.3033 141.696 18.33C141.182 19.3567 140.926 20.535 140.926 21.865C140.926 23.1717 141.171 24.35 141.661 25.4C142.174 26.4267 142.874 27.2433 143.761 27.85C144.671 28.4567 145.709 28.76 146.876 28.76ZM169.67 12.45C171.256 12.45 172.505 12.7767 173.415 13.43C174.325 14.0833 174.966 14.9583 175.34 16.055C175.736 17.1517 175.935 18.3767 175.935 19.73V29.565C175.935 29.9617 175.795 30.3 175.515 30.58C175.258 30.86 174.931 31 174.535 31C174.138 31 173.8 30.86 173.52 30.58C173.263 30.3 173.135 29.9617 173.135 29.565V19.8C173.135 18.9133 172.995 18.12 172.715 17.42C172.458 16.6967 172.015 16.125 171.385 15.705C170.778 15.2617 169.938 15.04 168.865 15.04C167.885 15.04 166.986 15.2617 166.17 15.705C165.353 16.125 164.7 16.6967 164.21 17.42C163.72 18.12 163.475 18.9133 163.475 19.8V29.565C163.475 29.9617 163.335 30.3 163.055 30.58C162.798 30.86 162.471 31 162.075 31C161.678 31 161.34 30.86 161.06 30.58C160.803 30.3 160.675 29.9617 160.675 29.565V14.305C160.675 13.9083 160.803 13.5817 161.06 13.325C161.34 13.045 161.678 12.905 162.075 12.905C162.495 12.905 162.833 13.045 163.09 13.325C163.346 13.5817 163.475 13.9083 163.475 14.305V16.79L162.775 17.56C162.891 16.9533 163.16 16.3467 163.58 15.74C164 15.11 164.525 14.55 165.155 14.06C165.785 13.57 166.485 13.185 167.255 12.905C168.025 12.6017 168.83 12.45 169.67 12.45ZM196.024 5.1C196.421 5.1 196.748 5.24 197.004 5.52C197.284 5.77667 197.424 6.10333 197.424 6.5V29.565C197.424 29.9617 197.284 30.3 197.004 30.58C196.748 30.86 196.421 31 196.024 31C195.604 31 195.266 30.86 195.009 30.58C194.753 30.3 194.624 29.9617 194.624 29.565V26.24L195.289 25.995C195.289 26.555 195.114 27.15 194.764 27.78C194.414 28.3867 193.936 28.9583 193.329 29.495C192.723 30.0317 191.999 30.475 191.159 30.825C190.343 31.175 189.456 31.35 188.499 31.35C186.936 31.35 185.513 30.9417 184.229 30.125C182.969 29.3083 181.966 28.1883 181.219 26.765C180.496 25.3417 180.134 23.72 180.134 21.9C180.134 20.0567 180.496 18.4233 181.219 17C181.966 15.5767 182.969 14.4683 184.229 13.675C185.489 12.8583 186.889 12.45 188.429 12.45C189.409 12.45 190.331 12.6133 191.194 12.94C192.058 13.2667 192.804 13.71 193.434 14.27C194.088 14.83 194.601 15.4483 194.974 16.125C195.348 16.8017 195.534 17.4783 195.534 18.155L194.624 17.945V6.5C194.624 6.10333 194.753 5.77667 195.009 5.52C195.266 5.24 195.604 5.1 196.024 5.1ZM188.814 28.76C189.981 28.76 191.008 28.4683 191.894 27.885C192.804 27.2783 193.504 26.4617 193.994 25.435C194.508 24.385 194.764 23.2067 194.764 21.9C194.764 20.57 194.508 19.3917 193.994 18.365C193.504 17.3383 192.804 16.5333 191.894 15.95C191.008 15.3433 189.981 15.04 188.814 15.04C187.671 15.04 186.644 15.3433 185.734 15.95C184.848 16.5333 184.148 17.3383 183.634 18.365C183.121 19.3917 182.864 20.57 182.864 21.9C182.864 23.1833 183.121 24.35 183.634 25.4C184.148 26.4267 184.848 27.2433 185.734 27.85C186.644 28.4567 187.671 28.76 188.814 28.76Z" fill="#FFFFFF"/>
        <path d="M24.1011 18C24.1011 17.5945 24.3801 17.2398 24.7776 17.1478C27.7445 16.4559 29.8158 13.8427 29.8158 10.7871C29.8158 7.18162 26.89 4.25 23.2975 4.25C20.2319 4.25 17.5476 6.43303 16.9194 9.43851L24.1011 18ZM24.1011 18C24.1011 18.4052 24.3798 18.7598 24.7769 18.8521L24.1011 18ZM16.9194 26.5615C17.5476 29.567 20.2319 31.75 23.2975 31.75C26.89 31.75 29.8158 28.8184 29.8158 25.2129C29.8158 22.1573 27.7445 19.5441 24.7776 18.8522L16.9194 26.5615ZM16.9194 26.5615C16.8351 26.1567 16.4785 25.8654 16.0639 25.8654C15.6494 25.8654 15.2928 26.1567 15.2085 26.5615C14.5801 29.567 11.8957 31.75 8.83015 31.75C5.23764 31.75 2.31186 28.8184 2.31186 25.2129C2.31186 22.1573 4.38316 19.5441 7.35008 18.8522C7.74759 18.7602 8.0266 18.4055 8.0266 18C8.0266 17.5948 7.74793 17.2402 7.35082 17.1479L16.9194 26.5615ZM15.2085 9.43851C14.5801 6.43301 11.8957 4.25 8.83015 4.25C5.23764 4.25 2.31186 7.18162 2.31186 10.7871C2.31186 13.8427 4.38316 16.4559 7.35008 17.1478L15.2085 9.43851ZM15.2085 9.43851C15.2928 9.84326 15.6494 10.1346 16.0639 10.1346C16.4783 10.1346 16.8349 9.84341 16.9193 9.43882L15.2085 9.43851ZM8.83015 33.5C11.8854 33.5 14.636 31.7954 16.0639 29.2195C17.4916 31.7954 20.2421 33.5 23.2975 33.5C27.8572 33.5 31.5638 29.7816 31.5638 25.2129C31.5638 22.1523 29.9198 19.4359 27.3694 18C29.9198 16.5641 31.5638 13.8477 31.5638 10.7871C31.5638 6.2184 27.8572 2.5 23.2975 2.5C20.2421 2.5 17.4916 4.20458 16.0639 6.7805C14.636 4.20458 11.8854 2.5 8.83015 2.5C4.27048 2.5 0.563843 6.2184 0.563843 10.7871C0.563843 13.8477 2.20788 16.5641 4.75833 18C2.20788 19.4359 0.563843 22.1523 0.563843 25.2129C0.563843 29.7816 4.27048 33.5 8.83015 33.5Z" fill="#3DB370" stroke="#3DB370"/>
    <symbol>
</svg>